<svg id="Layer_1" data-name="Layer 1" xmlns="http://www.w3.org/2000/svg" width="201.57" height="195.27" viewBox="0 0 201.57 195.27">
  <polyline points="19.76 194.68 16.96 188.12 14.16 181.55 11.36 174.99 8.55 168.42 6.82 161.5 5.09 154.57 3.35 147.65 1.62 140.72 1.59 140.45 1.56 140.18 1.53 139.91 1.5 139.64 1.52 139.36 1.54 139.09 1.56 138.82 1.57 138.55 1.66 138.31 1.75 138.08 1.84 137.84 1.93 137.61 2.11 137.45 2.3 137.3 2.48 137.14 2.66 136.98 2.82 136.95 2.98 136.91 3.15 136.88 3.31 136.84 3.47 136.86 3.64 136.87 3.8 136.89 3.97 136.91 4.13 136.96 4.3 137.01 4.46 137.07 4.63 137.12 4.78 137.19 4.94 137.27 5.1 137.34 5.26 137.41 7.78 139.06 10.3 140.71 12.82 142.36 15.34 144 22.42 150.8 29.49 157.59 36.56 164.38 43.64 171.18 44.19 171.51 44.75 171.84 45.3 172.17 45.86 172.5 46.45 172.69 47.04 172.87 47.63 173.06 48.22 173.24 48.82 173.21 49.43 173.18 50.04 173.15 50.65 173.12 51.23 172.81 51.81 172.51 52.39 172.2 52.97 171.89 53.4 171.37 53.83 170.86 54.26 170.34 54.68 169.82 54.98 169.18 55.27 168.54 55.57 167.9 55.86 167.26 56.05 166.57 56.23 165.89 56.42 165.21 56.61 164.53 56.81 160.96 57 157.39 57.2 153.82 57.4 150.26 56.6 146.77 55.81 143.28 55.01 139.79 54.21 136.3 52.52 133.15 50.82 130 49.13 126.85 47.43 123.7 44.93 121.14 42.44 118.58 39.94 116.03 37.44 113.47 36.74 112.98 36.03 112.49 35.32 112 34.61 111.51 33.86 111.1 33.1 110.69 32.34 110.27 31.59 109.86 30.79 109.56 29.99 109.27 29.19 108.97 28.39 108.68 27.56 108.53 26.72 108.39 25.88 108.25 25.05 108.11 24.19 108.17 23.33 108.23 22.47 108.3 21.61 108.36 20.8 108.64 19.98 108.93 19.17 109.21 18.36 109.5 17.68 109.99 16.99 110.49 16.31 110.98 15.63 111.48 15.15 112.17 14.68 112.86 14.21 113.55 13.74 114.24 13.56 114.92 13.38 115.6 13.21 116.28 13.03 116.96 13.04 117.67 13.04 118.38 13.05 119.08 13.06 119.79 13.21 120.5 13.36 121.2 13.51 121.91 13.66 122.61 13.91 123.29 14.16 123.97 14.41 124.65 14.66 125.33 15.14 126.24 15.61 127.15 16.09 128.06 16.56 128.98 17.15 129.82 17.73 130.67 18.32 131.51 18.9 132.36 19.59 133.13 20.28 133.89 20.96 134.66 21.65 135.42 22.43 136.1 23.21 136.77 23.99 137.44 24.77 138.11 25.45 138.56 26.14 139.01 26.83 139.46 27.52 139.91 28.27 140.24 29.02 140.57 29.77 140.91 30.52 141.24 31.3 141.39 32.09 141.54 32.87 141.69 33.65 141.85 34.44 141.77 35.23 141.68 36.02 141.6 36.81 141.52 37.6 141.13 38.38 140.73 39.17 140.34 39.97 139.95 40.6 139.32 41.23 138.69 41.86 138.06 42.49 137.43 42.98 136.65 43.48 135.87 43.97 135.09 44.47 134.31 44.84 133.46 45.22 132.62 45.59 131.77 45.97 130.92 46.57 128.93 47.17 126.94 47.78 124.95 48.38 122.95 48.73 120.9 49.08 118.85 49.44 116.8 49.79 114.74 49.88 109.94 49.98 105.13 50.08 100.32 50.17 95.52 50.3 94.9 50.43 94.29 50.56 93.67 50.69 93.06 50.98 92.59 51.27 92.12 51.56 91.65 51.85 91.18 52.33 90.99 52.82 90.79 53.3 90.6 53.79 90.4 53.95 90.42 54.1 90.43 54.26 90.44 54.42 90.45 54.58 90.49 54.73 90.53 54.89 90.57 55.05 90.61 55.34 90.74 55.64 90.87 55.94 91 56.24 91.13 57.28 91.78 58.32 92.42 59.36 93.07 60.41 93.72 61.33 94.53 62.24 95.34 63.16 96.16 64.08 96.97 64.85 97.93 65.62 98.88 66.39 99.84 67.16 100.79 67.76 101.86 68.35 102.94 68.95 104.01 69.55 105.08 64.6 103.06 59.66 101.05 54.71 99.03 49.77 97.02 49.6 97 49.44 96.99 49.27 96.97 49.11 96.96 48.95 97 48.79 97.03 48.63 97.06 48.47 97.1 48.27 97.26 48.07 97.42 47.87 97.58 47.67 97.74 47.57 97.98 47.47 98.23 47.37 98.47 47.26 98.71 47.24 99 47.21 99.28 47.18 99.57 47.15 99.85 47.18 100.14 47.2 100.42 47.22 100.71 47.25 100.99 47.71 102.9 48.17 104.81 48.63 106.71 49.09 108.62 49.87 110.42 50.65 112.22 51.43 114.02 52.21 115.81 53.28 117.46 54.36 119.1 55.43 120.74 56.51 122.38 57.84 123.81 59.18 125.25 60.52 126.68 61.86 128.11 62.62 128.67 63.38 129.23 64.14 129.78 64.9 130.34 65.76 130.72 66.62 131.1 67.48 131.48 68.34 131.86 69.2 131.94 70.07 132.02 70.93 132.1 71.8 132.18 72.57 131.84 73.34 131.5 74.11 131.16 74.88 130.83 75.17 130.5 75.45 130.18 75.74 129.86 76.02 129.53 76.22 129.15 76.42 128.77 76.63 128.38 76.83 128 76.96 127.58 77.09 127.15 77.23 126.73 77.36 126.31 77.45 125.88 77.54 125.44 77.63 125.01 77.71 124.57 77.75 121.95 77.79 119.32 77.82 116.7 77.86 114.07 77.18 111.53 76.5 108.99 75.82 106.45 75.14 103.91 73.81 101.64 72.49 99.36 71.17 97.09 69.84 94.82 67.95 92.99 66.06 91.17 64.17 89.34 62.29 87.52 63.06 88.98 63.83 90.44 64.6 91.89 65.38 93.35 66.36 94.67 67.36 95.99 68.34 97.31 69.33 98.63 70.51 99.78 71.69 100.93 72.87 102.08 74.05 103.23 75.4 104.19 76.74 105.14 78.09 106.1 79.43 107.05 80.3 107.51 81.16 107.96 82.03 108.42 82.89 108.87 83.81 109.21 84.72 109.55 85.64 109.89 86.55 110.23 87.5 110.42 88.45 110.61 89.39 110.8 90.34 110.98 91.31 110.98 92.27 110.98 93.23 110.97 94.2 110.97 95.14 110.72 96.09 110.48 97.03 110.24 97.98 109.99 98.82 109.51 99.67 109.02 100.51 108.53 101.36 108.05 102.02 107.35 102.68 106.66 103.34 105.97 104 105.27 104.38 104.4 104.77 103.53 105.16 102.66 105.54 101.79 105.59 100.79 105.63 99.8 105.68 98.8 105.72 97.81 105.45 96.83 105.18 95.86 104.92 94.89 104.65 93.92 104.16 92.99 103.68 92.07 103.19 91.15 102.71 90.22 100.73 87.78 98.75 85.34 96.77 82.9 94.79 80.46 91.62 77.71 88.44 74.96 85.27 72.22 82.09 69.47 79.7 68.01 77.31 66.55 74.92 65.09 72.53 63.63 71.88 63.37 71.23 63.11 70.57 62.85 69.92 62.59 69.25 62.45 68.58 62.32 67.91 62.19 67.24 62.05 66.56 62.09 65.89 62.14 65.21 62.19 64.53 62.23 63.91 62.54 63.29 62.84 62.66 63.15 62.04 63.45 61.59 63.99 61.14 64.52 60.69 65.05 60.24 65.58 60.06 66.22 59.88 66.85 59.7 67.48 59.52 68.12 59.71 68.73 59.9 69.34 60.09 69.96 60.28 70.57 60.48 70.78 60.67 70.99 60.87 71.2 61.07 71.42 61.31 71.58 61.56 71.74 61.8 71.9 62.04 72.06 62.32 72.18 62.59 72.29 62.86 72.41 63.13 72.53 63.42 72.61 63.7 72.68 63.99 72.76 64.27 72.84 65.19 72.9 66.11 72.96 67.03 73.02 67.95 73.08 68.86 72.91 69.77 72.73 70.68 72.56 71.59 72.39 72.46 72.04 73.33 71.69 74.21 71.34 75.08 70.99 75.9 70.51 76.71 70.03 77.52 69.55 78.34 69.07 81.28 66.77 84.22 64.47 87.17 62.16 90.11 59.86 90.48 59.64 90.84 59.43 91.2 59.22 91.56 59 91.75 58.93 91.95 58.86 92.14 58.79 92.34 58.72 92.54 58.69 92.74 58.66 92.95 58.62 93.15 58.59 93.42 58.63 93.69 58.66 93.96 58.7 94.23 58.74 94.49 58.84 94.74 58.95 94.99 59.06 95.25 59.17 98.49 61.91 101.73 64.65 104.97 67.39 108.21 70.14 109.03 70.58 109.85 71.02 110.67 71.46 111.49 71.9 112.38 72.18 113.26 72.46 114.15 72.74 115.03 73.02 115.94 73.09 116.85 73.17 117.75 73.24 118.66 73.31 119.55 73.12 120.43 72.94 121.31 72.75 122.2 72.56 122.4 72.47 122.6 72.38 122.8 72.29 123 72.2 123.18 72.09 123.37 71.97 123.56 71.86 123.74 71.74 123.9 71.6 124.06 71.45 124.22 71.31 124.38 71.17 124.5 70.99 124.62 70.81 124.74 70.64 124.87 70.46 124.95 70.09 125.04 69.72 125.12 69.35 125.21 68.97 125.14 68.59 125.07 68.21 125 67.83 124.93 67.44 124.76 67.07 124.58 66.69 124.41 66.31 124.24 65.94 120.57 61.42 116.91 56.9 113.24 52.38 109.58 47.86 110.45 48.9 111.33 49.94 112.21 50.98 113.08 52.03 114.11 52.93 115.13 53.83 116.15 54.73 117.18 55.62 118.32 56.36 119.47 57.1 120.61 57.84 121.76 58.57 123 59.13 124.24 59.69 125.49 60.24 126.73 60.8 127.39 60.98 128.06 61.17 128.72 61.35 129.39 61.53 130.07 61.59 130.76 61.65 131.44 61.71 132.13 61.77 132.77 61.65 133.41 61.52 134.05 61.4 134.69 61.28 135.21 60.92 135.74 60.55 136.27 60.19 136.79 59.83 137.12 59.19 137.44 58.54 137.76 57.9 138.09 57.25 138.09 56.51 138.1 55.77 138.1 55.03 138.11 54.29 137.89 53.52 137.68 52.76 137.46 51.99 137.24 51.22 134.01 45.98 130.77 40.75 127.54 35.51 124.3 30.27 127.55 32.16 130.8 34.04 134.05 35.93 137.31 37.82 139.04 38.47 140.77 39.11 142.5 39.76 144.23 40.4 146.05 40.68 147.87 40.95 149.69 41.23 151.5 41.5 151.87 41.49 152.23 41.47 152.59 41.45 152.95 41.44 153.13 41.39 153.3 41.35 153.47 41.31 153.65 41.27 153.81 41.19 153.97 41.11 154.12 41.03 154.28 40.95 154.55 40.59 154.82 40.23 155.09 39.87 155.37 39.5 155.38 39.03 155.39 38.55 155.41 38.08 155.42 37.6 155.26 37.09 155.1 36.58 154.93 36.07 154.77 35.56 150.98 29.82 147.19 24.08 143.41 18.33 139.62 12.59 146.13 17 152.64 21.42 159.15 25.83 165.66 30.24 163.04 23.84 160.43 17.43 157.81 11.03 155.2 4.63 155.15 4.36 155.11 4.09 155.06 3.82 155.02 3.55 155.06 3.3 155.09 3.05 155.12 2.8 155.16 2.56 155.31 2.37 155.45 2.17 155.6 1.98 155.75 1.79 155.92 1.72 156.1 1.65 156.28 1.57 156.45 1.5 156.65 1.5 156.84 1.5 157.04 1.5 157.24 1.5 157.44 1.55 157.64 1.6 157.84 1.65 158.04 1.7 163.69 4.53 169.35 7.37 175 10.2 180.66 13.03 182.27 14.27 183.89 15.5 185.5 16.73 187.11 17.96 188.52 19.46 189.92 20.96 191.33 22.46 192.73 23.96 193.81 25.7 194.9 27.44 195.98 29.18 197.06 30.92 197.71 32.83 198.36 34.74 199.01 36.66 199.66 38.57 199.76 40.57 199.86 42.58 199.96 44.58 200.06 46.59 199.74 48.06 199.42 49.54 199.1 51.02 198.78 52.49 198.2 53.89 197.61 55.29 197.03 56.69 196.45 58.09 184.77 74.58 173.09 91.08 161.41 107.57 149.73 124.07 147.14 129.12 144.56 134.17 141.97 139.22 139.39 144.28 151.89 128.01 164.4 111.74 176.91 95.47 189.42 79.19" fill="none" stroke="#231f20" stroke-miterlimit="10" stroke-width="3"/>
</svg>
